# xmcd
#
# Track frame offsets: 
#        150
#        16873
#        33673
#        49014
#        65519
#        77146
#        92637
#        106406
#        120358
#        134662
#        155212
#        174713
#        192337
#        207757
#        222383
#        235959
#        249911
#        264012
#        277139
#        290338
#        306276
#
# Disc length: 4378 seconds
#
# Revision: 3
# Processed by: cddbd v1.5.2PL0 Copyright (c) Steve Scherf et al.
# Submitted via: ExactAudioCopy v1.0b3
#
DISCID=34111815
DTITLE=The Kelly Family - Best of The Kelly Family
DYEAR=1900
DGENRE=Country
TTITLE0=Roses of Red
TTITLE1=An Angels
TTITLE2=I Feel Love
TTITLE3=Becouse It's Love
TTITLE4=Big Mouth On TV
TTITLE5=Oh, It Hurts 
TTITLE6=Can't Help Myself
TTITLE7=Who'll Come With Me
TTITLE8=Hooks
TTITLE9=Let My People Go
TTITLE10=Let It Be
TTITLE11=Mull Of Kentyre
TTITLE12=The Wolf
TTITLE13=When The Boys Come To Town
TTITLE14=I'll Swim, i'll swim
TTITLE15=Santa Maria
TTITLE16=Ode to Joy
TTITLE17=Every Baby
TTITLE18=Key To My Hand
TTITLE19=Why, why, why
TTITLE20=Calling Heaven
EXTD=
EXTT0=
EXTT1=
EXTT2=
EXTT3=
EXTT4=
EXTT5=
EXTT6=
EXTT7=
EXTT8=
EXTT9=
EXTT10=
EXTT11=
EXTT12=
EXTT13=
EXTT14=
EXTT15=
EXTT16=
EXTT17=
EXTT18=
EXTT19=
EXTT20=
PLAYORDER=
